<?xml version="1.0" standalone="no"?>
<!DOCTYPE svg PUBLIC "-//W3C//DTD SVG 20010904//EN"
 "http://www.w3.org/TR/2001/REC-SVG-20010904/DTD/svg10.dtd">
<svg version="1.0" xmlns="http://www.w3.org/2000/svg"
 width="400.000000pt" height="400.000000pt" viewBox="0 0 400.000000 400.000000"
 preserveAspectRatio="xMidYMid meet">
<metadata>
Created by potrace 1.11, written by Peter Selinger 2001-2013
</metadata>
<g transform="translate(0.000000,400.000000) scale(0.100000,-0.100000)"
fill="#000000" stroke="none">
<path d="M0 2000 l0 -2000 2000 0 2000 0 0 2000 0 2000 -2000 0 -2000 0 0
-2000z m1010 384 c4 -5 10 -42 12 -81 4 -81 -8 -98 -43 -60 -11 12 -28 30 -37
40 -44 48 -91 61 -218 62 -129 0 -154 -7 -206 -54 -20 -17 -28 -34 -28 -58 0
-65 44 -89 335 -183 78 -25 157 -63 195 -92 42 -33 60 -69 60 -124 0 -96 -77
-163 -225 -195 -120 -27 -464 -9 -487 25 -10 14 -10 64 0 69 4 3 41 -9 82 -25
68 -27 86 -30 190 -30 103 -1 121 2 173 25 72 33 96 60 97 110 0 65 -58 104
-250 167 -52 17 -104 35 -115 39 -11 5 -40 17 -65 27 -25 10 -64 36 -87 58
-42 37 -43 40 -43 100 0 54 4 66 31 99 17 20 36 37 42 37 7 0 23 6 37 13 24
13 90 32 140 41 42 8 401 -1 410 -10z m1725 -5 c8 -8 15 -41 16 -78 2 -57 0
-65 -18 -72 -16 -6 -24 -1 -38 24 -25 43 -33 49 -85 72 -36 16 -66 20 -165 20
-113 0 -123 -2 -167 -27 -34 -20 -50 -38 -58 -63 -23 -70 21 -101 255 -179
144 -48 243 -91 283 -123 12 -10 31 -40 41 -68 17 -44 17 -53 4 -89 -28 -81
-101 -129 -243 -161 -124 -28 -435 -6 -467 32 -10 12 -9 61 2 71 1 2 20 -4 41
-13 104 -44 129 -49 239 -48 77 1 122 7 150 18 144 60 156 153 30 219 -33 17
-107 47 -165 66 -256 83 -320 128 -320 225 0 76 52 130 160 164 96 30 99 30
303 27 145 -3 192 -6 202 -17z m822 0 l52 -12 11 -53 c15 -73 10 -128 -12
-132 -12 -2 -22 6 -29 25 -15 41 -68 92 -119 116 -38 18 -65 21 -165 22 -105
0 -125 -3 -161 -22 -92 -49 -134 -135 -134 -275 0 -196 75 -302 250 -354 40
-12 91 -17 193 -16 126 1 137 0 137 -17 0 -26 -84 -41 -224 -41 -193 0 -330
46 -422 142 -83 87 -108 162 -102 300 3 80 8 103 33 152 27 53 75 102 130 132
22 12 115 41 155 48 49 9 356 -2 407 -15z m-1872 -4 c208 -37 294 -104 344
-266 41 -135 -22 -317 -136 -389 -85 -54 -261 -93 -393 -86 -36 1 -116 3 -177
4 l-113 2 0 338 c0 385 6 360 -87 382 -29 6 -53 16 -53 21 0 15 524 11 615 -6z"/>
<path d="M1376 2318 c-14 -19 -16 -66 -16 -308 0 -350 -7 -330 120 -330 138 0
255 36 311 97 55 59 71 111 70 240 0 112 -11 157 -52 206 -67 81 -167 117
-324 117 -86 0 -95 -2 -109 -22z"/>
</g>
</svg>
